{"title":"Yamla Pagla Deewana 2 (2013) 720p BRrip x264 Junaid-Zia (PimpRG)","uid":8801170,"size":2491722917,"categoryP":"video","categoryS":"hd___movies","magnet":"?xt=urn:btih:82e5dba4396d1c1fe1b384153c77cecb240fe6b9&amp;dn=Yamla+Pagla+Deewana+2+%282013%29+720p+BRrip+x264+Junaid-Zia+%28PimpRG%29&amp;tr=udp%3A%2F%2Ftracker.openbittorrent.com%3A80&amp;tr=udp%3A%2F%2Fopen.demonii.com%3A1337&amp;tr=udp%3A%2F%2Ftracker.coppersurfer.tk%3A6969&amp;tr=udp%3A%2F%2Fexodus.desync.com%3A6969","seeders":0,"leechers":1,"uploader":"junaidzia","files":17,"time":1376204481,"description":"[b]General[/b]\nFormat                         : Matroska\nFormat version                 : Version 4 / Version 2\nFile size                      : 2.28 GiB\nDuration                       : 2h 34mn\nOverall bit rate               : 2 117 Kbps\nEncoded date                   : UTC 2013-08-10 13:20:00\n\n[b]Video[/b]\nID                             : 1\nFormat                         : AVC\nFormat/Info                    : Advanced Video Codec\nFormat profile                 : &lt;a class=&quot;__cf_email__&quot; href=&quot;/cdn-cgi/l/email-protection&quot; data-cfemail=&quot;feb6979996beb2cdd0cf&quot;&gt;[email&amp;#160;protected]&lt;/a&gt;&lt;script cf-hash='f9e31' type=&quot;text/javascript&quot;&gt;\n/* &lt;![CDATA[ */!function(){try{var t=&quot;currentScript&quot;in document?document.currentScript:function(){for(var t=document.getElementsByTagName(&quot;script&quot;),e=t.length;e--;)if(t[e].getAttribute(&quot;cf-hash&quot;))return t[e]}();if(t&amp;&amp;t.previousSibling){var e,r,n,i,c=t.previousSibling,a=c.getAttribute(&quot;data-cfemail&quot;);if(a){for(e=&quot;&quot;,r=parseInt(a.substr(0,2),16),n=2;a.length-n;n+=2)i=parseInt(a.substr(n,2),16)^r,e+=String.fromCharCode(i);e=document.createTextNode(e),c.parentNode.replaceChild(e,c)}}}catch(u){}}();/* ]]&gt; */&lt;/script&gt;\nFormat settings, CABAC         : Yes\nFormat settings, ReFrames      : 4 frames\nCodec ID                       : V_MPEG4/ISO/AVC\nDuration                       : 2h 34mn\nBit rate                       : 1 859 Kbps\nWidth                          : 1 280 pixels\nHeight                         : 544 pixels\nDisplay aspect ratio           : 2.35:1\nFrame rate mode                : Constant\nFrame rate                     : 24.000 fps\nColor space                    : YUV\nChroma subsampling             : 4:2:0\nBit depth                      : 8 bits\nScan type                      : Progressive\nBits/(Pixel*Frame)             : 0.111\nStream size                    : 1.96 GiB (86%)\n\nLanguage                       : Hindi\nDefault                        : Yes\nForced                         : No\n\n[b]Audio[/b]\nID                             : 2\nFormat                         : AC-3\nFormat/Info                    : Audio Coding 3\nMode extension                 : CM (complete main)\nFormat settings, Endianness    : Big\nCodec ID                       : A_AC3\nDuration                       : 2h 34mn\nBit rate mode                  : Constant\nBit rate                       : 256 Kbps\nChannel(s)                     : 6 channels\nChannel positions              : Front: L C R, Side: L R, LFE\nSampling rate                  : 48.0 KHz\nBit depth                      : 16 bits\nCompression mode               : Lossy\nStream size                    : 282 MiB (12%)\nTitle                          : Encoder Junaid-Zia\nLanguage                       : Hindi\nDefault                        : Yes\nForced                         : No\n\n[b]Text[/b]\nID                             : 3\nFormat                         : UTF-8\nCodec ID                       : S_TEXT/UTF8\nCodec ID/Info                  : UTF-8 Plain Text\nTitle                          : Soft Encoded\nLanguage                       : English\nDefault                        : Yes\nForced                         : No\n\n\n &lt;a href=&quot;\nhttp://imageshack.us/a/img812/9912/ptye.jpg&quot; rel=&quot;nofollow&quot; target=&quot;_NEW&quot;&gt;\nhttp://imageshack.us/a/img812/9912/ptye.jpg&lt;/a&gt;\n &lt;a href=&quot;\nhttp://imageshack.us/a/img203/8711/kxv9.jpg&quot; rel=&quot;nofollow&quot; target=&quot;_NEW&quot;&gt;\nhttp://imageshack.us/a/img203/8711/kxv9.jpg&lt;/a&gt;\n &lt;a href=&quot;\nhttp://imageshack.us/a/img543/2079/bz9e.jpg&quot; rel=&quot;nofollow&quot; target=&quot;_NEW&quot;&gt;\nhttp://imageshack.us/a/img543/2079/bz9e.jpg&lt;/a&gt;\n &lt;a href=&quot;\nhttp://imageshack.us/a/img407/7859/hzxp.jpg&quot; rel=&quot;nofollow&quot; target=&quot;_NEW&quot;&gt;\nhttp://imageshack.us/a/img407/7859/hzxp.jpg&lt;/a&gt;\n &lt;a href=&quot;\nhttp://imageshack.us/a/img62/9585/bkbq.jpg&quot; rel=&quot;nofollow&quot; target=&quot;_NEW&quot;&gt;\nhttp://imageshack.us/a/img62/9585/bkbq.jpg&lt;/a&gt;\n\n\n\n[b]Seed After Downloading, Remember Sharing is Caring.[/b]","torrent":{"xt":"urn:btih:82e5dba4396d1c1fe1b384153c77cecb240fe6b9","amp;dn":"Yamla+Pagla+Deewana+2+%282013%29+720p+BRrip+x264+Junaid-Zia+%28PimpRG%29","amp;tr":["udp%3A%2F%2Ftracker.openbittorrent.com%3A80","udp%3A%2F%2Fopen.demonii.com%3A1337","udp%3A%2F%2Ftracker.coppersurfer.tk%3A6969","udp%3A%2F%2Fexodus.desync.com%3A6969"],"infoHash":"82e5dba4396d1c1fe1b384153c77cecb240fe6b9","infoHashBuffer":{"type":"Buffer","data":[130,229,219,164,57,109,28,31,225,179,132,21,60,119,206,203,36,15,230,185]},"announce":[],"urlList":[]}}